<svg id="visual" viewBox="0 0 900 600" width="900" height="600" xmlns="http://www.w3.org/2000/svg" xmlns:xlink="http://www.w3.org/1999/xlink" version="1.1"><path d="M0 103L16.7 103C33.3 103 66.7 103 100 95C133.3 87 166.7 71 200 65C233.3 59 266.7 63 300 61C333.3 59 366.7 51 400 52C433.3 53 466.7 63 500 72C533.3 81 566.7 89 600 85C633.3 81 666.7 65 700 62C733.3 59 766.7 69 800 74C833.3 79 866.7 79 883.3 79L900 79L900 0L883.3 0C866.7 0 833.3 0 800 0C766.7 0 733.3 0 700 0C666.7 0 633.3 0 600 0C566.7 0 533.3 0 500 0C466.7 0 433.3 0 400 0C366.7 0 333.3 0 300 0C266.7 0 233.3 0 200 0C166.7 0 133.3 0 100 0C66.7 0 33.3 0 16.7 0L0 0Z" fill="#bb004d"></path><path d="M0 193L16.7 199C33.3 205 66.7 217 100 222C133.3 227 166.7 225 200 220C233.3 215 266.7 207 300 211C333.3 215 366.7 231 400 240C433.3 249 466.7 251 500 240C533.3 229 566.7 205 600 211C633.3 217 666.7 253 700 260C733.3 267 766.7 245 800 243C833.3 241 866.7 259 883.3 268L900 277L900 77L883.3 77C866.7 77 833.3 77 800 72C766.7 67 733.3 57 700 60C666.7 63 633.3 79 600 83C566.7 87 533.3 79 500 70C466.7 61 433.3 51 400 50C366.7 49 333.3 57 300 59C266.7 61 233.3 57 200 63C166.7 69 133.3 85 100 93C66.7 101 33.3 101 16.7 101L0 101Z" fill="#ff3575"></path><path d="M0 313L16.7 315C33.3 317 66.7 321 100 328C133.3 335 166.7 345 200 339C233.3 333 266.7 311 300 309C333.3 307 366.7 325 400 335C433.3 345 466.7 347 500 330C533.3 313 566.7 277 600 289C633.3 301 666.7 361 700 378C733.3 395 766.7 369 800 367C833.3 365 866.7 387 883.3 398L900 409L900 275L883.3 266C866.7 257 833.3 239 800 241C766.7 243 733.3 265 700 258C666.7 251 633.3 215 600 209C566.7 203 533.3 227 500 238C466.7 249 433.3 247 400 238C366.7 229 333.3 213 300 209C266.7 205 233.3 213 200 218C166.7 223 133.3 225 100 220C66.7 215 33.3 203 16.7 197L0 191Z" fill="#ff749e"></path><path d="M0 529L16.7 525C33.3 521 66.7 513 100 515C133.3 517 166.7 529 200 531C233.3 533 266.7 525 300 527C333.3 529 366.7 541 400 543C433.3 545 466.7 537 500 528C533.3 519 566.7 509 600 512C633.3 515 666.7 531 700 532C733.3 533 766.7 519 800 515C833.3 511 866.7 517 883.3 520L900 523L900 407L883.3 396C866.7 385 833.3 363 800 365C766.7 367 733.3 393 700 376C666.7 359 633.3 299 600 287C566.7 275 533.3 311 500 328C466.7 345 433.3 343 400 333C366.7 323 333.3 305 300 307C266.7 309 233.3 331 200 337C166.7 343 133.3 333 100 326C66.7 319 33.3 315 16.7 313L0 311Z" fill="#ff3575"></path><path d="M0 601L16.7 601C33.3 601 66.7 601 100 601C133.3 601 166.7 601 200 601C233.3 601 266.7 601 300 601C333.3 601 366.7 601 400 601C433.3 601 466.7 601 500 601C533.3 601 566.7 601 600 601C633.3 601 666.7 601 700 601C733.3 601 766.7 601 800 601C833.3 601 866.7 601 883.3 601L900 601L900 521L883.3 518C866.7 515 833.3 509 800 513C766.7 517 733.3 531 700 530C666.7 529 633.3 513 600 510C566.7 507 533.3 517 500 526C466.7 535 433.3 543 400 541C366.7 539 333.3 527 300 525C266.7 523 233.3 531 200 529C166.7 527 133.3 515 100 513C66.7 511 33.3 519 16.7 523L0 527Z" fill="#bb004d"></path></svg>