<svg id="visual" viewBox="0 0 900 600" width="900" height="600" xmlns="http://www.w3.org/2000/svg" xmlns:xlink="http://www.w3.org/1999/xlink" version="1.1"><rect x="0" y="0" width="900" height="600" fill="#001220"></rect><path d="M0 443L21.5 433.7C43 424.3 86 405.7 128.8 401.7C171.7 397.7 214.3 408.3 257.2 406.2C300 404 343 389 385.8 383.2C428.7 377.3 471.3 380.7 514.2 380.3C557 380 600 376 642.8 385.3C685.7 394.7 728.3 417.3 771.2 418.3C814 419.3 857 398.7 878.5 388.3L900 378L900 601L878.5 601C857 601 814 601 771.2 601C728.3 601 685.7 601 642.8 601C600 601 557 601 514.2 601C471.3 601 428.7 601 385.8 601C343 601 300 601 257.2 601C214.3 601 171.7 601 128.8 601C86 601 43 601 21.5 601L0 601Z" fill="#de93f1"></path><path d="M0 396L21.5 404.3C43 412.7 86 429.3 128.8 433.7C171.7 438 214.3 430 257.2 434.7C300 439.3 343 456.7 385.8 465.8C428.7 475 471.3 476 514.2 467.7C557 459.3 600 441.7 642.8 437.3C685.7 433 728.3 442 771.2 437.3C814 432.7 857 414.3 878.5 405.2L900 396L900 601L878.5 601C857 601 814 601 771.2 601C728.3 601 685.7 601 642.8 601C600 601 557 601 514.2 601C471.3 601 428.7 601 385.8 601C343 601 300 601 257.2 601C214.3 601 171.7 601 128.8 601C86 601 43 601 21.5 601L0 601Z" fill="#d579ed"></path><path d="M0 457L21.5 465.5C43 474 86 491 128.8 498.5C171.7 506 214.3 504 257.2 498.2C300 492.3 343 482.7 385.8 483.5C428.7 484.3 471.3 495.7 514.2 493.5C557 491.3 600 475.7 642.8 476C685.7 476.3 728.3 492.7 771.2 497.7C814 502.7 857 496.3 878.5 493.2L900 490L900 601L878.5 601C857 601 814 601 771.2 601C728.3 601 685.7 601 642.8 601C600 601 557 601 514.2 601C471.3 601 428.7 601 385.8 601C343 601 300 601 257.2 601C214.3 601 171.7 601 128.8 601C86 601 43 601 21.5 601L0 601Z" fill="#cc5de8"></path><path d="M0 488L21.5 488.5C43 489 86 490 128.8 495.7C171.7 501.3 214.3 511.7 257.2 512.8C300 514 343 506 385.8 502.3C428.7 498.7 471.3 499.3 514.2 503.2C557 507 600 514 642.8 520.3C685.7 526.7 728.3 532.3 771.2 532.5C814 532.7 857 527.3 878.5 524.7L900 522L900 601L878.5 601C857 601 814 601 771.2 601C728.3 601 685.7 601 642.8 601C600 601 557 601 514.2 601C471.3 601 428.7 601 385.8 601C343 601 300 601 257.2 601C214.3 601 171.7 601 128.8 601C86 601 43 601 21.5 601L0 601Z" fill="#b24ecb"></path><path d="M0 535L21.5 541.3C43 547.7 86 560.3 128.8 561.2C171.7 562 214.3 551 257.2 546.2C300 541.3 343 542.7 385.8 546.2C428.7 549.7 471.3 555.3 514.2 554.8C557 554.3 600 547.7 642.8 544.7C685.7 541.7 728.3 542.3 771.2 547.3C814 552.3 857 561.7 878.5 566.3L900 571L900 601L878.5 601C857 601 814 601 771.2 601C728.3 601 685.7 601 642.8 601C600 601 557 601 514.2 601C471.3 601 428.7 601 385.8 601C343 601 300 601 257.2 601C214.3 601 171.7 601 128.8 601C86 601 43 601 21.5 601L0 601Z" fill="#9940af"></path></svg>